<svg xmlns="http://www.w3.org/2000/svg" width="250" height="250" fill="none" viewBox="0 0 250 250">
<!-- SVG created with Arrow, by QuiverAI (https://quiver.ai) -->
  <path d="m130 174.5h78.71c3.53 0 3.1 6.59 3.1 8.21v22.08c0 3.89-2.47 5.18-4.17 5.18h-76.01l0.24-35.47h-1.87z" fill="url(#paint0_linear_135_212)"/>
  <path d="m122.8 125.8 88.57 0.66 0.67 29.91-3.58 5.41h-76.86v-22.13l-4.68-11.39-4.12-2.46z" fill="url(#paint1_linear_135_212)"/>
  <path d="m36.04 143v27.08l2.74 5.99-2.74 18.5 2.74 6-2.74 22.65c1.07 5.39 10.87 12.76 37.07 14.52 28.96 1.13 47.65-8.59 48.32-14.52v-82.29l-7.36-10.44-17.81-4.77-25.22-1.05-20.76 3.51-11.5 6.79-2.74 8.03z" fill="url(#paint2_linear_135_212)"/>
  <path d="m214.8 126.8-14.61-38.57c-0.85-1.95-2.45-2.92-4.01-2.75h-5.79v-70.21c0-5.3-4.05-7.23-6.76-7.23h-117.8c-4.72 0-7.3 4.39-7.3 7.23v92.37c0 4.51 3.4 7.74 7.23 7.74h118c4.98 0 6.64-4.57 6.64-6.98v-18.33h6.14l10.33 31.69h-89.79c9.17 4 14.18 11.16 14.18 20.5v22.47h63.59v6.32h-63.21v41.9h76.48c5.02 0 6.69-5.84 6.69-7.66v-25.09c0-4.97-3.37-9.15-7.59-9.15h-5.04v-6.32h5.99c6.57 0 6.64-7.85 6.64-8.57v-26.81-2.55zm-113.8-111.3c3.35 0 4.1 2.52 4.1 3.69 0 3-1.93 4.2-4 4.2-3 0-4.05-2.14-4.05-3.96 0-2.34 1.66-3.93 3.95-3.93zm-14.36 0c3.36 0 4.1 2.52 4.1 3.69 0 3-1.93 4.2-4 4.2-3 0-4.04-2.14-4.04-3.96 0-2.34 1.66-3.93 3.94-3.93zm-14.86 0c3.35 0 4.1 2.52 4.1 3.69 0 3-1.93 4.2-4 4.2-3 0-4.05-2.14-4.05-3.96 0-2.34 1.66-3.93 3.95-3.93zm112.1 92.94c-0.15 0.15-0.37 0.27-0.61 0.27h-117.9c-0.48 0-0.69-0.53-0.69-0.91v-75h119.2v75.64zm24.65 71.8v24.3c0 1.52-0.87 1.95-1.49 1.95h-75.01v-28.2h75.11c0.9 0 1.39 1.1 1.39 1.95zm0-25.14c0 1.52-0.87 2.47-1.49 2.47h-75.01v-15.27c0-6.59-2.76-12.43-7.46-16.21h83.47c0.63 0 0.49 2.09 0.49 2.91v26.1z" fill="url(#paint3_linear_135_212)"/>
  <path d="m194.3 138.3c-3.65 0-4.57 2.7-4.57 4.44 0 3.41 2.69 4.86 4.42 4.86 3.65 0 4.38-2.99 4.38-4.45 0-3.1-2.11-4.85-4.23-4.85z" fill="#fff"/>
  <path d="m177.6 138.3c-3.65 0-4.57 2.7-4.57 4.44 0 3.41 2.69 4.86 4.42 4.86 3.65 0 4.38-2.99 4.38-4.45 0-3.1-2.11-4.85-4.23-4.85z" fill="#fff"/>
  <path d="m177.6 188.2c-3.65 0-4.57 2.7-4.57 4.44 0 3.41 2.69 4.86 4.42 4.86 3.65 0 4.38-2.99 4.38-4.45 0-3.1-2.11-4.85-4.23-4.85z" fill="#fff"/>
  <path d="m193.9 188.2c-3.65 0-4.57 2.7-4.57 4.44 0 3.41 2.69 4.86 4.42 4.86 3.65 0 4.38-2.99 4.38-4.45 0-3.1-2.11-4.85-4.23-4.85z" fill="#fff"/>
  <path d="m78.91 121.7c-22.87 0-46.69 6.33-46.69 18.91v81.99c0 10.44 17.79 19.09 46.69 19.09 27 0 46.02-8.27 46.02-19.09v-81.99c0-11.61-21.82-18.91-46.02-18.91zm39.28 100.9c0 6.1-14.88 12.54-39.28 12.54-24.59 0-39.94-7.25-39.94-12.54v-17.2c9.15 5.89 24.45 8.49 39.94 8.49 14.07 0 28.81-2.79 39.28-8.59v17.3zm0-27.59c0 5.89-14.88 11.89-39.28 11.89-24.59 0-39.94-6.96-39.94-11.89v-16.38c9.15 5.89 24.45 8.26 39.94 8.26 14.07 0 28.81-2.61 39.28-8.5v16.62zm0-26.28c0 5.46-14.88 11.46-39.28 11.46-24.59 0-39.94-6.54-39.94-11.46v-17.83c9.15 5.89 24.45 8.26 39.94 8.26 14.07 0 28.81-2.61 39.28-8.5v18.07zm-39.28-16.12c-23.19 0-39.28-7.37-39.28-12.39 0-5.25 13.58-11.97 39.28-11.97 24.02 0 39.28 7.51 39.28 11.97 0 5.46-14.88 12.39-39.28 12.39z" fill="url(#paint4_linear_135_212)"/>
  <path d="m102.8 90.01c2.17 1.44 5.8-0.97 4.86-4.17l-14.69-15.71 14.02-14.05c2.47-2.48-0.17-7.57-3.9-5.94l-17.69 18.34c-1.59 1.6-1.3 3.89 0.05 5.08l17.35 16.45z" fill="url(#paint5_linear_135_212)"/>
  <path d="m146 50.02c-3.23-1.31-6.44 2.9-4.27 5.99l14.02 14.05-14.14 15.1c-1.93 2.78 0.49 6.05 3.75 4.85l18.24-17.69c1.4-1.41 1.06-3.55-0.29-4.9l-17.31-17.4z" fill="url(#paint6_linear_135_212)"/>
  <path d="m115.9 97.02c2.21 0 2.88-0.87 3.4-2.71l16.6-46.6c1.18-3.58-1.13-4.53-3.08-4.53-2.14 0-3.11 1.44-3.92 4.02l-15.59 45.71c-0.9 2.55 0.12 4.11 2.59 4.11z" fill="url(#paint7_linear_135_212)"/>
  <defs>
    <linearGradient id="paint0_linear_135_212" x1="130.3" x2="212" y1="187.9" y2="191.2" gradientUnits="userSpaceOnUse">
      <stop stop-color="#2F80ED" offset="0"/>
      <stop stop-color="#74D787" offset="1"/>
    </linearGradient>
    <linearGradient id="paint1_linear_135_212" x1="123.5" x2="212.6" y1="137.8" y2="146.9" gradientUnits="userSpaceOnUse">
      <stop stop-color="#2F80ED" offset="0"/>
      <stop stop-color="#74D787" offset="1"/>
    </linearGradient>
    <linearGradient id="paint2_linear_135_212" x1="36.04" x2="122" y1="175" y2="176.2" gradientUnits="userSpaceOnUse">
      <stop stop-color="#2F80ED" offset="0"/>
      <stop stop-color="#74D787" offset="1"/>
    </linearGradient>
    <linearGradient id="paint3_linear_135_212" x1="58.51" x2="206.4" y1="60.33" y2="60.33" gradientUnits="userSpaceOnUse">
      <stop stop-color="#2574A9" offset="0"/>
      <stop stop-color="#63CE94" offset="1"/>
    </linearGradient>
    <linearGradient id="paint4_linear_135_212" x1="32.22" x2="125.6" y1="174.9" y2="174.9" gradientUnits="userSpaceOnUse">
      <stop stop-color="#1D497D" offset="0"/>
      <stop stop-color="#1F4B81" offset="1"/>
    </linearGradient>
    <linearGradient id="paint5_linear_135_212" x1="84.71" x2="108.2" y1="67.78" y2="67.78" gradientUnits="userSpaceOnUse">
      <stop stop-color="#2574A9" offset="0"/>
      <stop stop-color="#349992" offset="1"/>
    </linearGradient>
    <linearGradient id="paint6_linear_135_212" x1="140.7" x2="164.5" y1="67.92" y2="67.92" gradientUnits="userSpaceOnUse">
      <stop stop-color="#349992" offset="0"/>
      <stop stop-color="#43A08C" offset="1"/>
    </linearGradient>
    <linearGradient id="paint7_linear_135_212" x1="112.9" x2="136.5" y1="66.86" y2="66.86" gradientUnits="userSpaceOnUse">
      <stop stop-color="#2574A9" offset="0"/>
      <stop stop-color="#349992" offset="1"/>
    </linearGradient>
  </defs>
</svg>